<svg viewBox="-17 0 512 512.001" xmlns="http://www.w3.org/2000/svg"><path d="m471.566406 270.480469c.027344-.0625.058594-.125.089844-.1875 3.996094-8.511719 5.953125-17.675781 5.832031-27.074219-.390625-30.105469-2.613281-60.691406-6.09375-91.558594l-71.207031 59.339844zm0 0"/><path d="m282.023438 270.394531 71.273437-59.394531-71.203125-59.339844c-3.453125 30.605469-5.65625 60.925782-6.074219 90.777344-.132812 9.570312 1.886719 19.113281 5.921875 27.785156.027344.058594.054688.113282.082032.171875zm0 0"/><path d="m467.207031 116.074219c-.140625-.945313-.183593-1.875-.332031-2.824219l-3.421875-22.25h-173.421875l-3.417969 22.25c-.148437.949219-.191406 1.878906-.335937 2.824219l90.464844 75.386719zm0 0"/><path d="m278.449219 317.730469c1.5625 19.71875 3.660156 39.269531 6.652343 58.488281 6.710938 43.199219 18.53125 101.460938 36.726563 129.042969l4.453125 6.738281h100.925781l4.453125-6.738281c18.191406-27.582031 30.015625-85.84375 36.722656-129.027344 3.042969-19.503906 5.1875-39.332031 6.75-59.34375-24.703124 26.84375-59.359374 44.109375-98.390624 44.109375-38.824219 0-73.5625-16.679688-98.292969-43.269531zm0 0"/><path d="m449.621094 0h-145.753906l-9.222657 61h164.199219zm0 0"/><path d="m298.523438 295.71875c19.316406 21.738281 47.175781 35.28125 78.21875 35.28125 30.992187 0 58.613281-13.855469 77.902343-35.546875l-77.902343-64.917969zm0 0"/><path d="m44.953125 105.074219 90.644531 99.328125 85.976563-84.339844c-2.761719-9.714844-5.25-19.464844-8.566407-29.0625h-164.925781c-.5 4.792969-1.5 9.453125-3.128906 14.074219zm0 0"/><path d="m120.03125 231.84375-91.441406-100.207031c-18.339844 19.871093-28.589844 45.457031-28.589844 72.609375.0585938 25.8125 11.484375 49.820312 31.390625 65.875 16.074219 12.9375 29.117187 20.554687 32.054687 41.058594l22.277344 187.417968.878906 6.136719 8.878907 7.265625h80.199219l9.460937-.058594 4.089844-8.496094c21.5625-44.828124 35.835937-92.824218 44.425781-140.554687-24.039062-3.980469-46.347656-14.070313-65.273438-29.972656-30.042968-25.238281-47.578124-61.945313-48.351562-101.074219zm0 0"/><path d="m150.316406 231.988281c.828125 30.164063 14.160156 58.480469 37.359375 77.960938 14.742188 12.390625 32.34375 19.695312 51.214844 22.800781 7.292969-59.777344 4.640625-120.433594-8.207031-179.601562zm0 0"/><path d="m201.042969 61c-2.988281-7.234375-5.367188-14.628906-8.679688-21.769531l-17.8125-39.230469h-150.367187l20.003906 61zm0 0"/></svg>